# xmcd
#
# Track frame offsets: 
#        150
#        18000
#        20550
#        25775
#        34912
#        47400
#        65862
#        99537
#        111975
#        132625
#        142587
#        159950
#        171062
#        198325
#        222337
#        228125
#        236625
#        254987
#
# Disc length: 3631 seconds
#
# Revision: 3
# Processed by: cddbd v1.5.2PL0 Copyright (c) Steve Scherf et al.
# Submitted via: ExactAudioCopy v1.1
#
DISCID=f60e2d12
DTITLE=小蟲音樂 - 玫瑰白玫瑰電影原聲帶
DYEAR=1994
DGENRE=Soundtrack
TTITLE0=Nick Crawford - Blue Babe
TTITLE1=???????? - 序曲 Hot
TTITLE2=??????? - 紅玫瑰的盼情
TTITLE3=???????? - 紅玫瑰的慾望之翼
TTITLE4=???????????????? - 白玫瑰的禱文
TTITLE5=?? - 紅玫瑰的還君芳心
TTITLE6=???????? - 紅玫瑰的回眸
TTITLE7=???????? - 紅玫瑰的迷與悟
TTITLE8=??? - 紅玫瑰的夢醒無痕
TTITLE9=?? - 紅玫瑰的迴旋
TTITLE10=?? - 紅玫瑰的憶相思
TTITLE11=???????? - 白玫瑰的浮生若夢
TTITLE12=???????? - 紅玫瑰的醉人吻
TTITLE13=紅玫瑰的凋零
TTITLE14=?? - 紅玫瑰的等愛
TTITLE15=Rushi Hussain - 紅玫瑰的心饞
TTITLE16=??? - 貪吻
TTITLE17=??? - 玫瑰香 Hot
EXTD=
EXTT0=
EXTT1=
EXTT2=
EXTT3=
EXTT4=
EXTT5=
EXTT6=
EXTT7=
EXTT8=
EXTT9=
EXTT10=
EXTT11=
EXTT12=
EXTT13=
EXTT14=
EXTT15=
EXTT16=
EXTT17=
PLAYORDER=
